<?xml version="1.0" encoding="UTF-8" standalone="no"?>
<!-- Created with Inkscape (http://www.inkscape.org/) -->

<svg
   xmlns:osb="http://www.openswatchbook.org/uri/2009/osb"
   xmlns:dc="http://purl.org/dc/elements/1.1/"
   xmlns:cc="http://creativecommons.org/ns#"
   xmlns:rdf="http://www.w3.org/1999/02/22-rdf-syntax-ns#"
   xmlns:svg="http://www.w3.org/2000/svg"
   xmlns="http://www.w3.org/2000/svg"
   xmlns:sodipodi="http://sodipodi.sourceforge.net/DTD/sodipodi-0.dtd"
   xmlns:inkscape="http://www.inkscape.org/namespaces/inkscape"
   width="1117.1239"
   height="482.86017"
   id="svg2"
   version="1.1"
   inkscape:version="0.91 r13725"
   sodipodi:docname="rpca.svg"
   inkscape:export-filename="/Users/Strawberry/Desktop/complete.png"
   inkscape:export-xdpi="90"
   inkscape:export-ydpi="90">
  <defs
     id="defs4">
    <inkscape:path-effect
       is_visible="true"
       id="path-effect4405"
       effect="spiro" />
    <inkscape:path-effect
       effect="spiro"
       id="path-effect3036"
       is_visible="true" />
    <marker
       inkscape:stockid="DotL"
       orient="auto"
       refY="0"
       refX="0"
       id="DotL"
       style="overflow:visible">
      <path
         id="path3901"
         d="m -2.5,-1 c 0,2.76 -2.24,5 -5,5 -2.76,0 -5,-2.24 -5,-5 0,-2.76 2.24,-5 5,-5 2.76,0 5,2.24 5,5 z"
         style="fill-rule:evenodd;stroke:#000000;stroke-width:1pt;marker-start:none;marker-end:none"
         transform="matrix(0.8,0,0,0.8,5.92,0.8)"
         inkscape:connector-curvature="0" />
    </marker>
    <inkscape:path-effect
       effect="spiro"
       id="path-effect8999"
       is_visible="true" />
    <inkscape:path-effect
       effect="spiro"
       id="path-effect8995"
       is_visible="true" />
    <inkscape:path-effect
       effect="spiro"
       id="path-effect8991"
       is_visible="true" />
    <inkscape:path-effect
       effect="spiro"
       id="path-effect8987"
       is_visible="true" />
    <inkscape:path-effect
       effect="spiro"
       id="path-effect8983"
       is_visible="true" />
    <marker
       inkscape:stockid="TriangleOutL"
       orient="auto"
       refY="0"
       refX="0"
       id="TriangleOutL"
       style="overflow:visible">
      <path
         id="path5437"
         d="m 5.77,0 -8.65,5 0,-10 8.65,5 z"
         style="fill-rule:evenodd;stroke:#000000;stroke-width:1pt;marker-start:none"
         transform="scale(0.8,0.8)"
         inkscape:connector-curvature="0" />
    </marker>
    <marker
       inkscape:stockid="DotM"
       orient="auto"
       refY="0"
       refX="0"
       id="DotM"
       style="overflow:visible">
      <path
         id="path5359"
         d="m -2.5,-1 c 0,2.76 -2.24,5 -5,5 -2.76,0 -5,-2.24 -5,-5 0,-2.76 2.24,-5 5,-5 2.76,0 5,2.24 5,5 z"
         style="fill-rule:evenodd;stroke:#000000;stroke-width:1pt;marker-start:none;marker-end:none"
         transform="matrix(0.4,0,0,0.4,2.96,0.4)"
         inkscape:connector-curvature="0" />
    </marker>
    <marker
       inkscape:stockid="EmptyDiamondM"
       orient="auto"
       refY="0"
       refX="0"
       id="EmptyDiamondM"
       style="overflow:visible">
      <path
         id="path5404"
         d="M 0,-7.0710768 -7.0710894,0 0,7.0710589 7.0710462,0 0,-7.0710768 Z"
         style="fill:#ffffff;fill-rule:evenodd;stroke:#000000;stroke-width:1pt;marker-start:none"
         transform="scale(0.4,0.4)"
         inkscape:connector-curvature="0" />
    </marker>
    <marker
       inkscape:stockid="EmptyDiamondL"
       orient="auto"
       refY="0"
       refX="0"
       id="EmptyDiamondL"
       style="overflow:visible">
      <path
         id="path5401"
         d="M 0,-7.0710768 -7.0710894,0 0,7.0710589 7.0710462,0 0,-7.0710768 Z"
         style="fill:#ffffff;fill-rule:evenodd;stroke:#000000;stroke-width:1pt;marker-start:none"
         transform="scale(0.8,0.8)"
         inkscape:connector-curvature="0" />
    </marker>
    <marker
       inkscape:stockid="DiamondMend"
       orient="auto"
       refY="0"
       refX="0"
       id="DiamondMend"
       style="overflow:visible">
      <path
         id="path5395"
         d="M 0,-7.0710768 -7.0710894,0 0,7.0710589 7.0710462,0 0,-7.0710768 Z"
         style="fill-rule:evenodd;stroke:#000000;stroke-width:1pt;marker-start:none"
         transform="matrix(0.4,0,0,0.4,-2.6,0)"
         inkscape:connector-curvature="0" />
    </marker>
    <marker
       inkscape:stockid="TriangleInL"
       orient="auto"
       refY="0"
       refX="0"
       id="TriangleInL"
       style="overflow:visible">
      <path
         id="path5428"
         d="m 5.77,0 -8.65,5 0,-10 8.65,5 z"
         style="fill-rule:evenodd;stroke:#000000;stroke-width:1pt;marker-start:none"
         transform="scale(-0.8,-0.8)"
         inkscape:connector-curvature="0" />
    </marker>
    <marker
       inkscape:stockid="Arrow1Lstart"
       orient="auto"
       refY="0"
       refX="0"
       id="Arrow1Lstart"
       style="overflow:visible">
      <path
         id="path5294"
         d="M 0,0 5,-5 -12.5,0 5,5 0,0 Z"
         style="fill-rule:evenodd;stroke:#000000;stroke-width:1pt;marker-start:none"
         transform="matrix(0.8,0,0,0.8,10,0)"
         inkscape:connector-curvature="0" />
    </marker>
    <inkscape:perspective
       sodipodi:type="inkscape:persp3d"
       inkscape:vp_x="0 : 526.18109 : 1"
       inkscape:vp_y="0 : 1000 : 0"
       inkscape:vp_z="744.09448 : 526.18109 : 1"
       inkscape:persp3d-origin="372.04724 : 350.78739 : 1"
       id="perspective5217" />
    <linearGradient
       id="linearGradient5199"
       osb:paint="solid">
      <stop
         style="stop-color:#000000;stop-opacity:1;"
         offset="0"
         id="stop5201" />
    </linearGradient>
  </defs>
  <sodipodi:namedview
     id="base"
     pagecolor="#ffffff"
     bordercolor="#666666"
     borderopacity="1.0"
     inkscape:pageopacity="0.0"
     inkscape:pageshadow="2"
     inkscape:zoom="0.61203997"
     inkscape:cx="576.53176"
     inkscape:cy="127.30214"
     inkscape:document-units="px"
     inkscape:current-layer="layer1"
     showgrid="false"
     inkscape:snap-bbox="false"
     inkscape:window-width="1433"
     inkscape:window-height="855"
     inkscape:window-x="2"
     inkscape:window-y="0"
     inkscape:window-maximized="0"
     fit-margin-top="0"
     fit-margin-left="0"
     fit-margin-right="0"
     fit-margin-bottom="0" />
  <metadata
     id="metadata7">
    <rdf:RDF>
      <cc:Work
         rdf:about="">
        <dc:format>image/svg+xml</dc:format>
        <dc:type
           rdf:resource="http://purl.org/dc/dcmitype/StillImage" />
        <dc:title></dc:title>
      </cc:Work>
    </rdf:RDF>
  </metadata>
  <g
     inkscape:label="Layer 1"
     inkscape:groupmode="layer"
     id="layer1"
     transform="translate(539.3378,-120.97086)">
    <path
       style="fill:none;stroke:#000000;stroke-width:1.5;stroke-linecap:butt;stroke-linejoin:miter;stroke-miterlimit:4;stroke-dasharray:none;stroke-opacity:1;marker-start:url(#TriangleInL);marker-end:url(#TriangleOutL)"
       d="m 311.76877,157.03986 1.08838,301.03661 230.13351,84.12148"
       id="path2991"
       inkscape:connector-curvature="0"
       sodipodi:nodetypes="ccc" />
    <path
       style="fill:none;stroke:#000000;stroke-width:1.5;stroke-linecap:butt;stroke-linejoin:miter;stroke-miterlimit:4;stroke-dasharray:none;stroke-opacity:1;marker-end:url(#TriangleOutL)"
       d="M 312.81145,458.22457 128.96222,571.9371"
       id="path2993"
       inkscape:connector-curvature="0"
       sodipodi:nodetypes="cc" />
    <path
       style="fill:#b3b3b3;stroke:#808080;stroke-width:1.5;stroke-linecap:butt;stroke-linejoin:miter;stroke-miterlimit:4;stroke-dasharray:12, 6;stroke-dashoffset:0;stroke-opacity:1;marker-start:none;marker-mid:none"
       d="m 345.72243,377.95399 0.13656,-74.58238"
       id="path4261"
       inkscape:connector-curvature="0"
       sodipodi:nodetypes="cc" />
    <path
       style="fill:none;stroke:#000000;stroke-width:5;stroke-linecap:butt;stroke-linejoin:miter;stroke-miterlimit:4;stroke-dasharray:none;stroke-opacity:1"
       d="m 311.83397,460.27428 89.0163,-215.97927"
       id="path3026"
       inkscape:connector-curvature="0"
       sodipodi:nodetypes="cc" />
    <ellipse
       ry="6.3359132"
       rx="6.1393743"
       cy="298.5141"
       cx="345.28467"
       style="fill:#000000;fill-opacity:1;stroke:#000000;stroke-width:0.90667123;stroke-miterlimit:4;stroke-dasharray:none;stroke-dashoffset:0;stroke-opacity:1"
       id="ellipse4369" />
    <ellipse
       id="ellipse4371"
       style="fill:#000000;fill-opacity:1;stroke:#000000;stroke-width:0.90667123;stroke-miterlimit:4;stroke-dasharray:none;stroke-dashoffset:0;stroke-opacity:1"
       cx="362.62949"
       cy="177.84283"
       rx="6.1393743"
       ry="6.3359132" />
    <ellipse
       ry="6.3359132"
       rx="6.1393743"
       cy="376.78156"
       cx="345.89902"
       style="fill:#ffffff;fill-opacity:1;stroke:#000000;stroke-width:3;stroke-miterlimit:4;stroke-dasharray:none;stroke-dashoffset:0;stroke-opacity:1"
       id="ellipse4263" />
    <g
       transform="matrix(1.25,0,0,-1.25,96.661222,603.8315)"
       inkscape:label="ink_ext_XXXXXX"
       id="g4400">
      <g
         transform="scale(0.1,0.1)"
         id="g4402">
        <path
           inkscape:connector-curvature="0"
           id="path4404"
           style="fill:#000000;fill-opacity:1;fill-rule:nonzero;stroke:none"
           d="m 109.527,112.402 c 2.161,9.34 10.422,42.391 35.563,42.391 1.777,0 10.41,0 17.949,-4.668 -10.062,-1.801 -17.23,-10.781 -17.23,-19.391 0,-5.75 3.941,-12.582 13.64,-12.582 7.91,0 19.391,6.473 19.391,20.832 0,18.688 -21.192,23.7 -33.391,23.7 -20.84,0 -33.41,-19.032 -37.722,-27.282 -8.977,23.7 -28.3676,27.282 -38.7778,27.282 -37.3594,0 -57.832,-46.332 -57.832,-55.301 0,-3.59 3.5898,-3.59 4.3125,-3.59 2.8789,0 3.9492,0.719 4.668,3.949 12.1992,38.063 35.9101,47.051 48.1289,47.051 6.8125,0 19.3906,-3.23 19.3906,-24.059 0,-11.14 -6.1094,-35.2027 -19.3906,-85.4801 C 62.4766,22.9844 49.8984,7.91406 34.1094,7.91406 c -2.1602,0 -10.4102,0 -17.9531,4.66794 8.9804,1.8008 16.8828,9.3321 16.8828,19.3907 0,9.6914 -7.8907,12.5586 -13.2813,12.5586 C 8.97656,44.5313 0.0078125,35.2031 0.0078125,23.7031 0.0078125,7.18359 17.957,0.00390625 33.7578,0.00390625 57.457,0.00390625 70.3984,25.1445 71.4766,27.3047 75.7773,14.0234 88.707,0.00390625 110.258,0.00390625 c 36.98,0 57.469,46.32809375 57.469,55.30859375 0,3.5898 -3.227,3.5898 -4.309,3.5898 -3.23,0 -3.949,-1.4375 -4.668,-3.9492 C 146.887,16.5117 122.469,7.90234 110.977,7.90234 c -14.0004,0 -19.7504,11.48046 -19.7504,23.69926 0,7.9101 2.1601,15.8007 6.1132,31.6132 l 12.1992,49.1872" />
      </g>
    </g>
    <g
       transform="matrix(1.25,0,0,-1.25,557.09036,571.67746)"
       inkscape:label="ink_ext_XXXXXX"
       id="g4436">
      <g
         transform="scale(0.1,0.1)"
         id="g4438">
        <path
           inkscape:connector-curvature="0"
           id="path4440"
           style="fill:#000000;fill-opacity:1;fill-rule:nonzero;stroke:none"
           d="m 164.129,210.453 c 1.437,5.031 1.437,5.75 1.437,8.274 0,6.468 -5.027,9.699 -10.418,9.699 -3.589,0 -9.332,-2.16 -12.558,-7.551 -0.723,-1.801 -3.59,-12.941 -5.031,-19.391 -2.52,-9.339 -5.032,-19.05 -7.192,-28.73 l -16.16,-64.641 C 112.77,102.727 97.3398,77.5859 73.6289,77.5859 c -18.332,0 -22.2812,15.8008 -22.2812,29.0901 0,16.519 6.1093,38.777 18.332,70.39 5.7266,14.719 7.168,18.668 7.168,25.86 0,16.16 -11.4805,29.437 -29.4414,29.437 C 13.2891,232.363 0,180.305 0,177.066 c 0,-3.589 3.57813,-3.589 4.29688,-3.589 3.58984,0 3.95312,0.718 5.75002,6.468 9.7031,33.75 24.0625,44.532 36.2812,44.532 2.8789,0 8.9688,0 8.9688,-11.5 0,-8.973 -3.5899,-18.313 -6.0899,-25.141 -14.3672,-38.063 -20.8398,-58.531 -20.8398,-75.422 0,-31.9492 22.6328,-42.7304 43.832,-42.7304 14,0 26.1992,6.1133 36.2698,16.1602 C 103.797,67.1758 99.4883,49.5742 85.1289,30.5469 75.7891,18.3242 62.1484,7.92578 45.6289,7.92578 c -5.0312,0 -21.1914,1.07813 -27.3008,15.07812 5.75,0 10.4102,0 15.4414,4.3125 3.5899,3.2305 7.1875,7.9102 7.1875,14.7188 0,11.1406 -9.6992,12.5781 -13.3007,12.5781 -8.25,0 -20.10942,-5.75 -20.10942,-23.3399 0,-17.9492 15.81252,-31.2499625 38.08202,-31.2499625 36.9805,0 73.9801,32.6913625 84.0271,73.2734625 l 34.481,137.1871" />
      </g>
    </g>
    <g
       transform="matrix(1.25,0,0,-1.25,302.34851,141.30723)"
       inkscape:label="ink_ext_XXXXXX"
       id="g4508">
      <g
         transform="scale(0.1,0.1)"
         id="g4510">
        <path
           inkscape:connector-curvature="0"
           id="path4512"
           style="fill:#000000;fill-opacity:1;fill-rule:nonzero;stroke:none"
           d="m 32.332,33.7617 c 19.3907,20.8321 29.8086,29.8125 42.7305,40.9414 0,0.3594 22.2695,19.3907 35.1995,32.3279 34.109,33.391 42.019,50.641 42.019,52.082 0,3.578 -3.23,3.578 -3.949,3.578 -2.519,0 -3.59,-0.718 -5.391,-3.937 -10.769,-17.25 -18.308,-22.981 -26.918,-22.981 -8.621,0 -12.941,5.379 -18.3316,11.481 -6.8086,8.269 -12.918,15.437 -24.7773,15.437 -26.9414,0 -43.4532,-33.386 -43.4532,-40.937 0,-1.801 1.0821,-3.949 4.3125,-3.949 3.2305,0 3.9493,1.797 4.668,3.949 6.8125,16.519 27.6602,16.879 30.5195,16.879 7.5508,0 14.3829,-2.5 22.6407,-5.371 14.3594,-5.387 18.3124,-5.387 27.6404,-5.387 C 106.324,112.422 76.1523,86.5742 69.3242,80.8242 L 37.0117,50.6523 C 12.5938,26.5938 0.0117188,6.125 0.0117188,3.60156 c 0,-3.5898412 3.5898412,-3.5898412 4.3125012,-3.5898412 2.87891,0 3.58984,0.7226562 5.74998,4.6718712 8.2696,12.55861 19.0274,22.26951 30.5274,22.26951 8.25,0 11.8398,-3.2304 20.832,-13.6406 C 67.543,5.76172 73.9922,0.0117188 84.4141,0.0117188 c 35.5469,0 56.3869,45.6132812 56.3869,55.3124812 0,1.8008 -1.438,3.5899 -4.309,3.5899 -3.23,0 -3.949,-2.1602 -5.031,-4.6719 -8.27,-23.3399 -31.25,-30.168 -43.0899,-30.168 -7.1875,0 -13.6602,2.1602 -21.1875,4.668 -12.2227,4.6719 -17.6094,6.1094 -25.1406,6.1094 -0.7188,0 -6.4688,0 -9.6992,-1.0782" />
      </g>
    </g>
    <path
       sodipodi:nodetypes="cc"
       inkscape:connector-curvature="0"
       id="path4523"
       d="M 362.8501,335.72787 362.46396,182.36223"
       style="fill:#b3b3b3;stroke:#808080;stroke-width:1.5;stroke-linecap:butt;stroke-linejoin:miter;stroke-miterlimit:4;stroke-dasharray:12, 6;stroke-dashoffset:0;stroke-opacity:1;marker-start:none;marker-mid:none" />
    <ellipse
       ry="6.3359132"
       rx="6.1393743"
       cy="336.17157"
       cx="363.09103"
       style="fill:#ffffff;fill-opacity:1;stroke:#000000;stroke-width:3;stroke-miterlimit:4;stroke-dasharray:none;stroke-dashoffset:0;stroke-opacity:1"
       id="ellipse4359" />
    <ellipse
       ry="6.3359132"
       rx="6.1393743"
       cy="500.49112"
       cx="192.80475"
       style="fill:#000000;fill-opacity:1;stroke:#000000;stroke-width:0.90667123;stroke-miterlimit:4;stroke-dasharray:none;stroke-dashoffset:0;stroke-opacity:1"
       id="ellipse4255" />
    <path
       sodipodi:nodetypes="cc"
       inkscape:connector-curvature="0"
       id="path4519"
       d="M 334.16006,415.78977 201.0613,495.5745"
       style="fill:none;stroke:#808080;stroke-width:1.5;stroke-linecap:butt;stroke-linejoin:miter;stroke-miterlimit:4;stroke-dasharray:12, 6;stroke-dashoffset:0;stroke-opacity:1" />
    <ellipse
       id="ellipse4253"
       style="fill:#000000;fill-opacity:1;stroke:#000000;stroke-width:0.90667123;stroke-miterlimit:4;stroke-dasharray:none;stroke-dashoffset:0;stroke-opacity:1"
       cx="451.20874"
       cy="443.54272"
       rx="6.1393743"
       ry="6.3359132" />
    <path
       sodipodi:nodetypes="cc"
       inkscape:connector-curvature="0"
       id="path4249"
       d="m 330.35413,400.68877 117.06012,41.85021"
       style="fill:none;stroke:#808080;stroke-width:1.5;stroke-linecap:butt;stroke-linejoin:miter;stroke-miterlimit:4;stroke-dasharray:12, 6;stroke-dashoffset:0;stroke-opacity:1" />
    <ellipse
       id="ellipse4245"
       style="fill:#ffffff;fill-opacity:1;stroke:#000000;stroke-width:3;stroke-miterlimit:4;stroke-dasharray:none;stroke-dashoffset:0;stroke-opacity:1"
       cx="335.89902"
       cy="402.78156"
       rx="6.1393743"
       ry="6.3359132" />
    <ellipse
       ry="6.3359132"
       rx="6.1393743"
       cy="418.78156"
       cx="329.13971"
       style="fill:#ffffff;fill-opacity:1;stroke:#000000;stroke-width:3;stroke-miterlimit:4;stroke-dasharray:none;stroke-dashoffset:0;stroke-opacity:1"
       id="ellipse4247" />
    <path
       sodipodi:nodetypes="ccc"
       inkscape:connector-curvature="0"
       id="path4235"
       d="m -324.23123,157.03986 1.08838,301.03661 230.13351,84.12148"
       style="fill:none;stroke:#000000;stroke-width:1.5;stroke-linecap:butt;stroke-linejoin:miter;stroke-miterlimit:4;stroke-dasharray:none;stroke-opacity:1;marker-start:url(#TriangleInL);marker-end:url(#TriangleOutL)" />
    <path
       sodipodi:nodetypes="cc"
       inkscape:connector-curvature="0"
       id="path4237"
       d="M -323.18855,458.22457 -507.03778,571.9371"
       style="fill:none;stroke:#000000;stroke-width:1.5;stroke-linecap:butt;stroke-linejoin:miter;stroke-miterlimit:4;stroke-dasharray:none;stroke-opacity:1;marker-end:url(#TriangleOutL)" />
    <path
       sodipodi:nodetypes="cc"
       inkscape:connector-curvature="0"
       id="path4241"
       d="m -324.16603,460.27428 89.0163,-215.97927"
       style="fill:none;stroke:#000000;stroke-width:5;stroke-linecap:butt;stroke-linejoin:miter;stroke-miterlimit:4;stroke-dasharray:none;stroke-opacity:1" />
    <ellipse
       id="ellipse4254"
       style="fill:#000000;fill-opacity:1;stroke:#000000;stroke-width:3;stroke-miterlimit:4;stroke-dasharray:none;stroke-dashoffset:0;stroke-opacity:1"
       cx="-290.10098"
       cy="376.78156"
       rx="6.1393743"
       ry="6.3359132" />
    <g
       id="g4256"
       inkscape:label="ink_ext_XXXXXX"
       transform="matrix(1.25,0,0,-1.25,-539.33878,603.8315)">
      <g
         id="g4258"
         transform="scale(0.1,0.1)">
        <path
           d="m 109.527,112.402 c 2.161,9.34 10.422,42.391 35.563,42.391 1.777,0 10.41,0 17.949,-4.668 -10.062,-1.801 -17.23,-10.781 -17.23,-19.391 0,-5.75 3.941,-12.582 13.64,-12.582 7.91,0 19.391,6.473 19.391,20.832 0,18.688 -21.192,23.7 -33.391,23.7 -20.84,0 -33.41,-19.032 -37.722,-27.282 -8.977,23.7 -28.3676,27.282 -38.7778,27.282 -37.3594,0 -57.832,-46.332 -57.832,-55.301 0,-3.59 3.5898,-3.59 4.3125,-3.59 2.8789,0 3.9492,0.719 4.668,3.949 12.1992,38.063 35.9101,47.051 48.1289,47.051 6.8125,0 19.3906,-3.23 19.3906,-24.059 0,-11.14 -6.1094,-35.2027 -19.3906,-85.4801 C 62.4766,22.9844 49.8984,7.91406 34.1094,7.91406 c -2.1602,0 -10.4102,0 -17.9531,4.66794 8.9804,1.8008 16.8828,9.3321 16.8828,19.3907 0,9.6914 -7.8907,12.5586 -13.2813,12.5586 C 8.97656,44.5313 0.0078125,35.2031 0.0078125,23.7031 0.0078125,7.18359 17.957,0.00390625 33.7578,0.00390625 57.457,0.00390625 70.3984,25.1445 71.4766,27.3047 75.7773,14.0234 88.707,0.00390625 110.258,0.00390625 c 36.98,0 57.469,46.32809375 57.469,55.30859375 0,3.5898 -3.227,3.5898 -4.309,3.5898 -3.23,0 -3.949,-1.4375 -4.668,-3.9492 C 146.887,16.5117 122.469,7.90234 110.977,7.90234 c -14.0004,0 -19.7504,11.48046 -19.7504,23.69926 0,7.9101 2.1601,15.8007 6.1132,31.6132 l 12.1992,49.1872"
           style="fill:#000000;fill-opacity:1;fill-rule:nonzero;stroke:none"
           id="path4260"
           inkscape:connector-curvature="0" />
      </g>
    </g>
    <g
       id="g4262"
       inkscape:label="ink_ext_XXXXXX"
       transform="matrix(1.25,0,0,-1.25,-78.90964,571.67746)">
      <g
         id="g4264"
         transform="scale(0.1,0.1)">
        <path
           d="m 164.129,210.453 c 1.437,5.031 1.437,5.75 1.437,8.274 0,6.468 -5.027,9.699 -10.418,9.699 -3.589,0 -9.332,-2.16 -12.558,-7.551 -0.723,-1.801 -3.59,-12.941 -5.031,-19.391 -2.52,-9.339 -5.032,-19.05 -7.192,-28.73 l -16.16,-64.641 C 112.77,102.727 97.3398,77.5859 73.6289,77.5859 c -18.332,0 -22.2812,15.8008 -22.2812,29.0901 0,16.519 6.1093,38.777 18.332,70.39 5.7266,14.719 7.168,18.668 7.168,25.86 0,16.16 -11.4805,29.437 -29.4414,29.437 C 13.2891,232.363 0,180.305 0,177.066 c 0,-3.589 3.57813,-3.589 4.29688,-3.589 3.58984,0 3.95312,0.718 5.75002,6.468 9.7031,33.75 24.0625,44.532 36.2812,44.532 2.8789,0 8.9688,0 8.9688,-11.5 0,-8.973 -3.5899,-18.313 -6.0899,-25.141 -14.3672,-38.063 -20.8398,-58.531 -20.8398,-75.422 0,-31.9492 22.6328,-42.7304 43.832,-42.7304 14,0 26.1992,6.1133 36.2698,16.1602 C 103.797,67.1758 99.4883,49.5742 85.1289,30.5469 75.7891,18.3242 62.1484,7.92578 45.6289,7.92578 c -5.0312,0 -21.1914,1.07813 -27.3008,15.07812 5.75,0 10.4102,0 15.4414,4.3125 3.5899,3.2305 7.1875,7.9102 7.1875,14.7188 0,11.1406 -9.6992,12.5781 -13.3007,12.5781 -8.25,0 -20.10942,-5.75 -20.10942,-23.3399 0,-17.9492 15.81252,-31.2499625 38.08202,-31.2499625 36.9805,0 73.9801,32.6913625 84.0271,73.2734625 l 34.481,137.1871"
           style="fill:#000000;fill-opacity:1;fill-rule:nonzero;stroke:none"
           id="path4266"
           inkscape:connector-curvature="0" />
      </g>
    </g>
    <g
       id="g4269"
       inkscape:label="ink_ext_XXXXXX"
       transform="matrix(1.25,0,0,-1.25,-333.65149,141.30723)">
      <g
         id="g4271"
         transform="scale(0.1,0.1)">
        <path
           d="m 32.332,33.7617 c 19.3907,20.8321 29.8086,29.8125 42.7305,40.9414 0,0.3594 22.2695,19.3907 35.1995,32.3279 34.109,33.391 42.019,50.641 42.019,52.082 0,3.578 -3.23,3.578 -3.949,3.578 -2.519,0 -3.59,-0.718 -5.391,-3.937 -10.769,-17.25 -18.308,-22.981 -26.918,-22.981 -8.621,0 -12.941,5.379 -18.3316,11.481 -6.8086,8.269 -12.918,15.437 -24.7773,15.437 -26.9414,0 -43.4532,-33.386 -43.4532,-40.937 0,-1.801 1.0821,-3.949 4.3125,-3.949 3.2305,0 3.9493,1.797 4.668,3.949 6.8125,16.519 27.6602,16.879 30.5195,16.879 7.5508,0 14.3829,-2.5 22.6407,-5.371 14.3594,-5.387 18.3124,-5.387 27.6404,-5.387 C 106.324,112.422 76.1523,86.5742 69.3242,80.8242 L 37.0117,50.6523 C 12.5938,26.5938 0.0117188,6.125 0.0117188,3.60156 c 0,-3.5898412 3.5898412,-3.5898412 4.3125012,-3.5898412 2.87891,0 3.58984,0.7226562 5.74998,4.6718712 8.2696,12.55861 19.0274,22.26951 30.5274,22.26951 8.25,0 11.8398,-3.2304 20.832,-13.6406 C 67.543,5.76172 73.9922,0.0117188 84.4141,0.0117188 c 35.5469,0 56.3869,45.6132812 56.3869,55.3124812 0,1.8008 -1.438,3.5899 -4.309,3.5899 -3.23,0 -3.949,-2.1602 -5.031,-4.6719 -8.27,-23.3399 -31.25,-30.168 -43.0899,-30.168 -7.1875,0 -13.6602,2.1602 -21.1875,4.668 -12.2227,4.6719 -17.6094,6.1094 -25.1406,6.1094 -0.7188,0 -6.4688,0 -9.6992,-1.0782"
           style="fill:#000000;fill-opacity:1;fill-rule:nonzero;stroke:none"
           id="path4273"
           inkscape:connector-curvature="0" />
      </g>
    </g>
    <ellipse
       id="ellipse4277"
       style="fill:#000000;fill-opacity:1;stroke:#000000;stroke-width:3;stroke-miterlimit:4;stroke-dasharray:none;stroke-dashoffset:0;stroke-opacity:1"
       cx="-272.90897"
       cy="336.17157"
       rx="6.1393743"
       ry="6.3359132" />
    <ellipse
       ry="6.3359132"
       rx="6.1393743"
       cy="402.78156"
       cx="-300.10098"
       style="fill:#000000;fill-opacity:1;stroke:#000000;stroke-width:3;stroke-miterlimit:4;stroke-dasharray:none;stroke-dashoffset:0;stroke-opacity:1"
       id="ellipse4287" />
    <ellipse
       id="ellipse4289"
       style="fill:#000000;fill-opacity:1;stroke:#000000;stroke-width:3;stroke-miterlimit:4;stroke-dasharray:none;stroke-dashoffset:0;stroke-opacity:1"
       cx="-306.86029"
       cy="418.78156"
       rx="6.1393743"
       ry="6.3359132" />
    <g
       transform="matrix(1.25,0,0,-1.25,-240.21767,233.72104)"
       inkscape:label="ink_ext_XXXXXX"
       id="g4358">
      <g
         transform="scale(0.1,0.1)"
         id="g4360">
        <path
           inkscape:connector-curvature="0"
           id="path4362"
           style="fill:#000000;fill-opacity:1;fill-rule:nonzero;stroke:none"
           d="m 212.969,257.516 c 0,1.082 -0.719,3.582 -3.942,3.582 -1.8,0 -2.16,-0.364 -6.468,-5.371 l -17.231,-20.469 c -9.34,16.879 -28.019,25.84 -51.359,25.84 -45.6096,0 -88.719,-41.301 -88.719,-84.75 0,-29.09 19.0469,-45.614 37.3594,-51 l 38.4176,-10.051 c 13.301,-3.231 33.051,-8.621 33.051,-38.0822 0,-32.3281 -29.449,-66.0781 -64.6405,-66.0781 -23,0 -62.8594,7.9102 -62.8594,52.4414 0,8.6094 1.8008,17.2266 2.1602,19.3867 0.3594,1.4414 0.7187,1.8008 0.7187,2.5196 0,3.5937 -2.5195,3.9531 -4.3086,3.9531 -1.8007,0 -2.5195,-0.3594 -3.5898,-1.4414 C 20.1172,86.5547 0.0078125,4.66797 0.0078125,3.58594 c 0,-2.16016 1.8007775,-3.58984625 3.9492175,-3.58984625 1.80078,0 2.16016,0.35937525 6.47267,5.39062625 L 28.0195,25.8555 C 43.457,5.02734 67.8789,-0.00390625 88.7188,-0.00390625 c 48.8402,0 91.2192,47.76950625 91.2192,92.30080625 0,24.7811 -12.219,37.0001 -17.61,42.0311 -8.25,8.25 -13.64,9.688 -45.609,17.949 -7.891,2.161 -20.8323,5.75 -24.0628,6.469 -9.6874,3.231 -21.9062,13.641 -21.9062,32.672 0,29.09 28.7266,59.629 62.859,59.629 29.797,0 51.719,-15.442 51.719,-55.672 0,-11.48 -1.441,-17.949 -1.441,-20.109 0,-0.36 0,-3.59 4.301,-3.59 3.589,0 3.949,1.082 5.39,7.191 l 19.391,78.66" />
      </g>
    </g>
    <g
       id="g4367"
       inkscape:label="ink_ext_XXXXXX"
       transform="matrix(1.25,0,0,-1.25,395.78233,233.72104)">
      <g
         id="g4369"
         transform="scale(0.1,0.1)">
        <path
           d="m 212.969,257.516 c 0,1.082 -0.719,3.582 -3.942,3.582 -1.8,0 -2.16,-0.364 -6.468,-5.371 l -17.231,-20.469 c -9.34,16.879 -28.019,25.84 -51.359,25.84 -45.6096,0 -88.719,-41.301 -88.719,-84.75 0,-29.09 19.0469,-45.614 37.3594,-51 l 38.4176,-10.051 c 13.301,-3.231 33.051,-8.621 33.051,-38.0822 0,-32.3281 -29.449,-66.0781 -64.6405,-66.0781 -23,0 -62.8594,7.9102 -62.8594,52.4414 0,8.6094 1.8008,17.2266 2.1602,19.3867 0.3594,1.4414 0.7187,1.8008 0.7187,2.5196 0,3.5937 -2.5195,3.9531 -4.3086,3.9531 -1.8007,0 -2.5195,-0.3594 -3.5898,-1.4414 C 20.1172,86.5547 0.0078125,4.66797 0.0078125,3.58594 c 0,-2.16016 1.8007775,-3.58984625 3.9492175,-3.58984625 1.80078,0 2.16016,0.35937525 6.47267,5.39062625 L 28.0195,25.8555 C 43.457,5.02734 67.8789,-0.00390625 88.7188,-0.00390625 c 48.8402,0 91.2192,47.76950625 91.2192,92.30080625 0,24.7811 -12.219,37.0001 -17.61,42.0311 -8.25,8.25 -13.64,9.688 -45.609,17.949 -7.891,2.161 -20.8323,5.75 -24.0628,6.469 -9.6874,3.231 -21.9062,13.641 -21.9062,32.672 0,29.09 28.7266,59.629 62.859,59.629 29.797,0 51.719,-15.442 51.719,-55.672 0,-11.48 -1.441,-17.949 -1.441,-20.109 0,-0.36 0,-3.59 4.301,-3.59 3.589,0 3.949,1.082 5.39,7.191 l 19.391,78.66"
           style="fill:#000000;fill-opacity:1;fill-rule:nonzero;stroke:none"
           id="path4371"
           inkscape:connector-curvature="0" />
      </g>
    </g>
  </g>
</svg>
